<?xml version="1.0" encoding="utf-8"?>
<!DOCTYPE svg PUBLIC "-//W3C//DTD SVG 1.1 Tiny//EN" "http://www.w3.org/Graphics/SVG/1.1/DTD/svg11-tiny.dtd">
<svg version="1.1" baseProfile="tiny" id="Logo" xmlns="http://www.w3.org/2000/svg" xmlns:xlink="http://www.w3.org/1999/xlink"
	 x="0px" y="0px" width="1000px" height="1000px" viewBox="0 0 1000 1000" xml:space="preserve">
<path fill-rule="evenodd" fill="#558ED5" d="M61.553,500.001c0-242.1,196.3-438.36,438.446-438.357l0,0l0,0
	c242.146,0,438.446,196.259,438.446,438.357l0,0l0,0c0,242.098-196.301,438.354-438.446,438.354l0,0l0,0
	C257.852,938.354,61.553,742.099,61.553,500.001L61.553,500.001L61.553,500.001z"/>
<path fill="#FA9646" d="M499.999,1000C224.297,1000,0,775.698,0,500.001C0,224.297,224.295,0,499.995,0
	C775.701,0,1000,224.297,1000,500.001C1000,775.698,775.701,1000,499.999,1000z M499.999,123.287
	c-207.82,0-376.892,168.993-376.892,376.714s169.074,376.707,376.892,376.707c207.819,0,376.89-168.986,376.89-376.707
	S707.818,123.287,499.999,123.287z"/>
<polygon fill-rule="evenodd" fill="#558ED5" points="344.375,534.262 471.73,763.972 375.521,817.291 248.165,587.584
	344.375,534.262 "/>
<path fill="#FA9646" d="M370.785,833.833L231.625,582.836l117.486-65.113l139.157,250.998L370.785,833.833z M264.706,592.332
	L380.257,800.75l74.931-41.526l-115.55-208.421L264.706,592.332z"/>
<path fill-rule="evenodd" fill="#558ED5" d="M381.253,524.792c11.981-10.563,9.937-19.817,14.901-29.725
	c1.804-4.245,0-20.436,0-40.874c0-20.436-2.088-59.451,0-81.747c2.091-22.296,10.047-32.822,12.532-52.02
	c2.484-19.2,5.082-42.113,2.37-63.17c-2.708-21.056-18.909-49.036-18.626-63.167c0.282-14.132,7.902-20.381,20.319-21.619
	c12.421-1.239,38.95,0.058,54.191,14.188c15.24,14.131,29.69,45.264,37.255,70.598c7.563,25.336,3.78,64.688,8.129,81.411
	c4.345,16.719,4.401,20.717,17.951,18.917c13.546-1.802,43.462-19.818,63.335-29.726c19.867-9.909,37.253-27.869,55.876-29.728
	c18.631-1.855,44.086,10.529,55.886,18.583c11.798,8.049,14.903,17.776,14.903,29.724c-19.506,12.602-75.131,47.068-74.512,48.306
	c0.622,1.237,53.837-29.982,78.238-40.875c8.398,4.409,16.29,24.589,29.803,37.158c1.279,10.673-0.516,13.625-3.725,29.728
	c-19.066,13.477-67.682,43.35-67.063,44.587c0.624,1.238,53.366-27.759,70.787-37.156c12.16,15.956,18.889,20.263,29.806,37.156
	c4.116,15.146-7.964,38.341-7.455,52.024c-11.579,8.704-61.356,28.428-59.604,33.438c-1.501,4.627,47.921-25.448,59.604-26.011
	c5.11,6.867,11.12,10.245,10.503,22.634c-0.625,12.388-7.509,39.352-14.229,51.68c-6.714,12.334-26.078,22.299-26.078,22.299
	c-28.443,14.863-108.656,58.213-137.843,70.598c-14.278,4.521-24.012,2.66-37.255,3.717c-10.61,2.591-13.379,5.631-26.415,11.824
	c-13.039,6.193-17.396,4.137-51.819,25.332C469.992,698.338,398.355,557.599,381.253,524.792L381.253,524.792z"/>
<path fill="#FA9646" d="M493.026,744.294c-3.699,0-7.306-1.808-9.488-5.078c-19.778-29.663-72.463-131.801-100.771-186.668
	c-4.943-9.586-8.947-17.35-11.62-22.472c-2.428-4.66-1.366-10.38,2.573-13.851c8.569-7.556,10.932-19.317,11.041-21.32
	l-0.006-40.712c0-6.114-0.188-13.906-0.396-22.415c-0.5-20.71-1.071-44.184,0.448-60.399c1.248-13.305,4.431-22.977,7.244-31.51
	c2.225-6.758,4.328-13.139,5.333-20.911c2.457-18.979,4.866-40.85,2.368-60.243c-1.158-9.011-5.433-20.201-9.568-31.021
	c-5.009-13.108-9.336-24.428-9.149-33.835c0.379-18.911,11.53-30.848,30.588-32.748c2.785-0.279,5.819-0.42,9.014-0.42
	c10.548,0,36.927,1.714,54.05,17.588c18.195,16.871,33.154,51.327,40.433,75.705c5.517,18.482,6.649,47.294,7.396,66.358
	c0.258,6.497,0.55,13.861,0.892,15.67l0.289,1.127c1.199,4.771,2.545,9.19,4.237,9.19c0.269,0,0.548-0.023,0.842-0.063
	c7.864-1.043,27.487-11.553,41.812-19.223c6.372-3.411,12.527-6.701,17.946-9.404c6.565-3.278,13.209-7.775,19.631-12.125
	c12.533-8.496,25.498-17.277,40.195-18.742c1.64-0.165,3.318-0.244,5.03-0.244c22.149,0,47.885,13.571,58.405,20.75
	c17.176,11.72,19.712,27.02,19.873,37.948c11.77,8.248,30.747,34.188,33.122,42.739c2.145,7.717,0.62,15.001-1.898,27.067
	c-0.33,1.578-0.676,3.258-1.047,5.057c0.361,0.362,0.705,0.753,1.026,1.169c4.756,6.244,8.647,10.618,12.408,14.846
	c5.669,6.365,11.019,12.382,17.904,23.035c0.637,0.988,1.116,2.068,1.425,3.203c3.212,11.813-0.406,25.295-3.601,37.189
	c-1.771,6.602-3.609,13.428-3.464,17.408c0.047,1.147-0.082,2.275-0.367,3.356c0.308,0.361,0.614,0.712,0.918,1.062
	c4.501,5.199,10.665,12.316,9.948,26.642c-0.699,13.858-8.037,42.687-15.603,56.58c-8.159,14.979-28.574,25.795-30.879,26.976
	c-5.89,3.084-14.125,7.449-23.682,12.52c-36.403,19.298-91.41,48.463-114.923,58.44c-0.328,0.138-0.668,0.262-1.011,0.369
	c-11.428,3.619-20.317,3.727-28.917,3.83c-3.36,0.04-6.542,0.076-9.945,0.317c-5.063,1.311-7.646,2.693-12.539,5.314
	c-2.874,1.539-6.242,3.336-10.822,5.51c-3.636,1.731-6.479,2.987-9.432,4.289c-7.425,3.271-15.843,6.983-41.938,20.82
	C496.66,743.862,494.831,744.294,493.026,744.294z M395.084,526.693c2.234,4.319,4.912,9.511,7.937,15.372
	c23.927,46.38,71.554,138.703,94.014,175.798c19.686-10.277,27.275-13.623,34.067-16.616c2.77-1.224,5.439-2.397,8.854-4.016
	c4.158-1.983,7.225-3.624,9.841-5.025c5.755-3.08,10.303-5.512,18.759-7.577c0.589-0.147,1.19-0.239,1.796-0.291
	c4.521-0.359,8.527-0.409,12.4-0.453c7.726-0.095,13.86-0.166,21.825-2.61c22.902-9.805,76.847-38.408,112.635-57.381
	c9.606-5.095,17.88-9.482,23.867-12.609c6.353-3.293,17.709-10.967,21.345-17.643c5.846-10.729,12.297-35.858,12.85-46.793
	c0.227-4.542-0.588-6.045-3.234-9.175c-7.615,3.041-20.977,9.929-28.931,14.029c-17.827,9.2-21.709,11.001-26.134,11.001
	c-3.647,0-7.484-1.888-9.632-4.847c-1.088-1.499-1.786-3.229-2.068-5.037c-2.736-11.316,8.877-16.913,37.608-30.768
	c7.96-3.838,16.721-8.058,22.241-11.191c0.699-5.466,2.251-11.247,3.868-17.259c2.245-8.375,4.771-17.778,3.919-23.785
	c-5.395-8.121-9.709-12.968-14.654-18.525c-2.261-2.545-4.704-5.289-7.404-8.524l-3.498,1.9
	c-59.118,32.125-60.099,32.125-64.228,32.125c-4.306,0-8.349-2.463-10.285-6.31c-4.759-9.519,2.864-14.582,12.521-20.988
	c5.452-3.621,12.948-8.442,20.941-13.587c11.655-7.498,24.663-15.866,33.521-21.926c0.261-1.265,0.512-2.471,0.752-3.622
	c1.687-8.079,2.907-13.913,2.247-16.278c-1.776-4.456-13.393-19.847-20.372-26.892c-13.39,6.5-32.236,16.854-46.553,24.716
	c-25.278,13.885-26.119,14.286-30.042,14.286c-4.3,0-8.333-2.464-10.27-6.31c-4.884-9.76,0.963-13.54,20.335-26.063
	c9.783-6.325,22.521-14.373,34.128-21.704c6.813-4.304,13.232-8.361,18.425-11.668c-0.977-6.331-3.815-10.41-9.518-14.301
	c-10.097-6.893-32.763-18.214-48.34-16.657c-8.957,0.894-19.021,7.715-29.679,14.934c-7.043,4.769-14.316,9.699-22.248,13.653
	c-5.241,2.611-11.189,5.8-17.35,9.1c-22.711,12.163-38.433,20.245-49.563,21.722c-1.345,0.18-2.624,0.261-3.845,0.261
	c-19.702,0-24.527-19.219-26.347-26.451l-0.294-1.178c-0.857-3.307-1.095-8.61-1.554-20.291c-0.706-17.918-1.77-44.995-6.461-60.715
	c-8.243-27.596-22.256-54.527-34.08-65.492c-11.52-10.68-32.429-11.51-38.562-11.51c-2.409,0-4.748,0.108-6.753,0.306
	c-7.651,0.764-9.906,3.119-10.055,10.491c-0.099,4.949,4.018,15.717,7.648,25.214c4.397,11.508,9.382,24.553,10.889,36.265
	c2.843,22.091,0.269,45.699-2.371,66.094c-1.284,9.927-3.831,17.655-6.292,25.129c-2.669,8.103-5.189,15.755-6.196,26.492
	c-1.394,14.875-0.816,38.623-0.354,57.711c0.211,8.718,0.404,16.707,0.404,22.969v40.874
	C407.554,500.983,404.365,514.961,395.084,526.693z"/>
</svg>
